<?xml version="1.0" encoding="UTF-8"?>
<svg id="Capa_2" data-name="Capa 2" xmlns="http://www.w3.org/2000/svg" viewBox="0 0 963.61 916.63">
  <g id="Ilustración">
    <g>
      <path d="M769.58,711.68c-22.22,0-40.23-18.01-40.23-40.23s18.01-40.23,40.23-40.23,40.23,18.01,40.23,40.23c-.03,22.21-18.02,40.21-40.23,40.23Z" fill="#0063e2"/>
      <path d="M788.15,669.9h-17.02v-19.34c0-.85-.69-1.55-1.55-1.55s-1.55,.69-1.55,1.55v19.34h-17.02c-.85,0-1.55,.69-1.55,1.55s.69,1.55,1.55,1.55h17.02v19.34c0,.85,.69,1.55,1.55,1.55s1.55-.69,1.55-1.55v-19.34h17.02c.85,0,1.55-.69,1.55-1.55s-.69-1.55-1.55-1.55Z" fill="#fff"/>
      <polygon points="924.51 900.21 906.82 900.21 898.41 831.97 924.52 831.98 924.51 900.21" fill="#ffb8b8"/>
      <path d="M894.19,895.15h34.12v21.48h-55.6c0-11.86,9.62-21.48,21.48-21.48h0Z" fill="#0a2b3e"/>
      <polygon points="854.11 900.21 836.42 900.21 828.01 831.97 854.11 831.98 854.11 900.21" fill="#ffb8b8"/>
      <path d="M823.78,895.15h34.12v21.48h-55.6c0-11.86,9.62-21.48,21.48-21.48h0Z" fill="#0a2b3e"/>
      <path d="M938.14,664.31c-5.38-5.94-4.92-15.12,1.02-20.49,.63-.57,1.32-1.09,2.04-1.54l-5.48-32.7,19.06-8.18,7.09,46.29c3.81,7.1,1.15,15.94-5.95,19.76-5.94,3.19-13.29,1.9-17.78-3.13Z" fill="#ffb8b8"/>
      <path d="M788.92,648.86c6.29-4.97,7.35-14.09,2.38-20.38-.53-.67-1.12-1.29-1.76-1.86l10.81-31.35-17.45-11.21-14.64,44.48c-4.93,6.37-3.77,15.53,2.6,20.47,5.33,4.13,12.79,4.07,18.05-.15Z" fill="#ffb8b8"/>
      <circle cx="879.51" cy="379.94" r="38" fill="#ffb8b8"/>
      <path d="M787.74,625.41c-.65,0-1.3-.09-1.93-.27l-11.08-3.18c-3.68-1.06-5.82-4.9-4.78-8.59l22.86-80.71,31.88-78.26c3.17-7.78,9.79-12.88,17.28-13.31,6.99-.34,13.53,3.46,16.68,9.71h0c3.47,6.63,3.68,14.5,.55,21.31l-36.23,79.24-28.81,69.76c-1.07,2.61-3.61,4.31-6.43,4.31Z" fill="#0063e2"/>
      <path d="M900.96,411.81l-21.12,.38c-7.75,.15-14.16-6.01-14.31-13.76-.03-1.41,.16-2.82,.55-4.17,.45-1.53,.79-3.09,1.01-4.66,.24-1.72,.28-3.46,.14-5.19-.33-4.22-4.01-7.38-8.23-7.05-2.94,.23-5.49,2.12-6.55,4.87h0c-3.55,.05-11.11-1.11-14.66-1.06-7.54-19.33,8.89-44.61,26.57-54.11,18.03-9.68,41.43,.17,48.34,20.35,9.59,.17,17.38,9.63,18.62,20.28,1.24,10.65-3.14,21.77-9.85,29.93-6.7,8.16-15.5,14.11-20.51,14.2Z" fill="#0a2b3e"/>
      <path d="M831.55,893.84c-3.54-.02-6.51-2.69-6.9-6.2l-7.83-263.41,98.7,7.03,.08,.63c22.3,186.71,14.68,251.34,14.6,251.97-.22,3.84-3.51,6.77-7.35,6.55-.17,0-.34-.03-.51-.05l-21.81,.52c-3.42-.39-6.04-3.21-6.17-6.65l-20.38-190.79c-.26-1.02-1.22-1.71-2.27-1.63-1.08,0-2.02,.76-2.23,1.82l-7.87,191.41c.17,3.69-2.58,6.87-6.25,7.23l-23.11,1.54c-.23,.02-.46,.03-.69,.03Z" fill="#0a2b3e"/>
      <path d="M872.5,655.69c-.59,0-1.18,0-1.77-.03-28.38-.85-50.58-22.33-56.71-28.89-1.59-1.7-2.21-4.08-1.67-6.34l16.37-69.27-4.34-60.22c-1.38-16.9,4.54-33.59,16.26-45.85,9.77-10.32,23.54-15.89,37.73-15.27,27.63,1.32,49.42,26.01,49.62,56.22,.31,46.78-1.07,50-1.52,51.05-13.79,32.18-6.26,77.35-3.62,90.43,.48,2.37-.3,4.82-2.07,6.48-15.16,14.39-31.4,21.67-48.27,21.68Z" fill="#0063e2"/>
      <path d="M943.78,638.09c-3.24,0-6.05-2.24-6.78-5.41l-16.89-73.59-22.64-84.11c-1.96-7.23-.46-14.96,4.07-20.92,4.14-5.64,11.22-8.31,18.05-6.82,7.32,1.67,13.01,7.79,14.85,15.99l18.5,82.36,9.23,83.46c.41,3.81-2.32,7.24-6.13,7.68l-11.45,1.31c-.26,.03-.53,.05-.8,.05Z" fill="#0063e2"/>
      <path d="M34.19,646.02c7.57-5.19,9.5-15.54,4.31-23.11-.55-.81-1.18-1.56-1.86-2.26l6.45-143.93-32.83,3.68,1.91,140.78c-6.14,6.9-5.52,17.46,1.38,23.6,5.77,5.13,14.31,5.65,20.65,1.24h0Z" fill="#ffb8b8"/>
      <polygon points="94.08 889.66 112.76 892.95 131.23 822.45 106.75 817.6 94.08 889.66" fill="#ffb8b8"/>
      <path d="M145.74,916.63l-58.72-10.32h0l3.99-22.69h0l36.03,6.33c12.53,2.2,20.9,14.15,18.7,26.68h0Z" fill="#0a2b3e"/>
      <polygon points="42.8 899.02 61.77 899.02 70.79 825.85 42.79 825.85 42.8 899.02" fill="#ffb8b8"/>
      <path d="M98.35,916.63H38.73s0-23.03,0-23.03h36.59c12.72,0,23.04,10.31,23.04,23.03h0Z" fill="#0a2b3e"/>
      <path d="M123.49,878.98c-.3,0-.59-.02-.89-.05l-22.33-1.84c-4.14-.49-7.11-4.24-6.62-8.38,.01-.13,.03-.25,.05-.37l20.62-115.56-13.93-73.46c-.26-1.37-1.58-2.26-2.94-2-1.11,.21-1.94,1.13-2.04,2.25l-17.42,195.94c-.4,4.09-3.96,7.12-8.06,6.87l-21.04-.78c-3.82-.27-6.83-3.35-7.02-7.17l-1.41-234.84,109.06-13.63,7.62,117.66-.03,.12-26.29,129.47c-.82,3.38-3.85,5.77-7.34,5.77Z" fill="#0a2b3e"/>
      <circle cx="76.43" cy="345.45" r="38" fill="#ffb8b8"/>
      <path d="M112.24,656.75c-5.94,.04-11.77-1.63-16.8-4.81-18.41-11.51-39.32-6.93-50.14-3.18-2.18,.76-4.58,.49-6.53-.74-1.93-1.21-3.19-3.23-3.44-5.5L15.64,466.7c-3.3-29.46,14.45-57.15,42.19-65.85h0c1.04-.33,2.1-.64,3.18-.93,17.48-4.74,36.16-1.5,51.02,8.85,15.14,10.47,24.86,27.1,26.56,45.42l16.57,177c.23,2.32-.65,4.62-2.36,6.2-5.81,5.37-22.67,19.36-40.56,19.36Z" fill="#0063e2"/>
      <path d="M52.29,504.4l-44.41-4.88c-4.86-.53-8.36-4.9-7.83-9.76,.05-.43,.13-.86,.24-1.28l11.3-43.09c1.56-13.48,13.75-23.14,27.23-21.58,13.42,1.56,23.07,13.66,21.59,27.09l1.68,44.37c.18,4.88-3.63,8.99-8.51,9.17-.43,.02-.87,0-1.3-.05h0Z" fill="#0063e2"/>
      <path d="M154.99,639.86c6.89-6.07,7.56-16.57,1.5-23.46-.65-.73-1.36-1.41-2.12-2.02l-10.94-143.66-32.17,7.24,18.88,139.9c-5.26,7.58-3.37,18,4.21,23.26,6.35,4.4,14.88,3.88,20.65-1.26Z" fill="#ffb8b8"/>
      <path d="M98.92,495.37c-1.88-1.75-2.91-4.24-2.81-6.81l1.68-44.37c-1.48-13.49,8.25-25.62,21.74-27.11,13.43-1.48,25.54,8.17,27.09,21.59l11.3,43.09c1.24,4.73-1.59,9.56-6.31,10.8-.42,.11-.85,.19-1.28,.24l-44.41,4.88c-2.56,.28-5.11-.56-6.99-2.32Z" fill="#0063e2"/>
      <path d="M74.17,384.89c-.68,0-1.35-.08-2.01-.23l-.19-.05c-33.41-5.11-40.8-24.47-42.42-32.55-1.68-8.37,.23-16.45,4.55-19.58-2.35-7.43-1.98-14.02,1.13-19.59,5.41-9.72,17.15-13,18.72-13.41,9.37-6.92,20.59-2.3,22.63-1.36,18.13-6.71,25.06-1.12,26.32,.12,8.11,1.46,13.05,4.59,14.69,9.31,3.08,8.87-6.66,19.9-7.08,20.36l-.22,.24-14.51,.69c-5.43,.26-9.62,4.87-9.36,10.3,.02,.34,.05,.69,.1,1.03h0c.39,1.76,.89,3.49,1.49,5.19,2.48,7.75,4.34,14.36,1.94,16.88-1.11,.99-2.68,1.27-4.06,.7-2.27-.61-3.81-.48-4.58,.38-1.19,1.33-.83,4.7,1.02,9.48,1.18,3.08,.56,6.57-1.62,9.05-1.63,1.92-4.02,3.03-6.54,3.04Z" fill="#0a2b3e"/>
      <path d="M649.85,656.07H275.39c-29.9-.03-54.12-24.26-54.16-54.16V54.16c.03-29.9,24.26-54.12,54.16-54.16h374.45c29.9,.03,54.12,24.26,54.16,54.16V601.91c-.03,29.9-24.26,54.12-54.16,54.16Z" fill="#fff"/>
      <path d="M591.05,434.85H334.19c-26.24-.13-26.35-40.09,0-40.23h256.86c26.22,.12,26.36,40.09,0,40.23Z" fill="#ccc"/>
      <path d="M591.05,112.91H334.19c-26.24-.13-26.35-40.09,0-40.23h256.86c26.22,.12,26.36,40.09,0,40.23Z" fill="#ccc"/>
      <path d="M591.05,509.12H334.19c-26.24-.13-26.35-40.09,0-40.23h256.86c26.22,.12,26.36,40.09,0,40.23Z" fill="#ccc"/>
      <path d="M591.05,583.39H334.19c-26.24-.13-26.35-40.09,0-40.23h256.86c26.22,.12,26.36,40.09,0,40.23Z" fill="#ccc"/>
      <path d="M649.85,656.07H275.39c-29.9-.03-54.12-24.26-54.16-54.16V54.16c.03-29.9,24.26-54.12,54.16-54.16h374.45c29.9,.03,54.12,24.26,54.16,54.16V601.91c-.03,29.9-24.26,54.12-54.16,54.16ZM275.39,9.28c-24.77,.03-44.84,20.1-44.87,44.87V601.91c.03,24.77,20.1,44.84,44.87,44.87h374.45c24.77-.03,44.84-20.1,44.87-44.87V54.16c-.03-24.77-20.1-44.84-44.87-44.87H275.39Z" fill="#e6e6e6"/>
      <path d="M585.44,345.6h-245.63c-13.98-.02-25.32-11.35-25.33-25.33V182.71c.02-13.98,11.35-25.32,25.33-25.33h245.63c13.98,.02,25.32,11.35,25.33,25.33v137.55c-.02,13.98-11.35,25.32-25.33,25.33Z" fill="#0063e2"/>
    </g>
  </g>
</svg>