<?xml version="1.0" encoding="UTF-8"?>
<svg id="Capa_2" data-name="Capa 2" xmlns="http://www.w3.org/2000/svg" viewBox="0 0 1190.27 847.83">
  <g id="Ilustración">
    <g>
      <path d="M802.63,838.62l-22.58-9.51-15.49-113.19h-206.27l-16.79,112.73-20.2,10.1c-2.37,1.18-3.33,4.07-2.15,6.44,.81,1.63,2.47,2.65,4.29,2.65h277.32c2.65,0,4.8-2.15,4.8-4.8,0-1.93-1.16-3.67-2.94-4.42Z" fill="#ccc"/>
      <path d="M1169.18,730.98H155.94c-11.07-.02-20.03-9.01-20.03-20.07v-142.88H1189.21v142.88c0,11.07-8.96,20.05-20.03,20.07Z" fill="#ccc"/>
      <path d="M1190.27,635.55H134.99V24.2c.02-13.36,10.84-24.18,24.2-24.2h1006.88c13.36,.01,24.18,10.84,24.2,24.2V635.55Z" fill="#0a2b3e"/>
      <path d="M1127.25,44.37H198.01c-10.3,.01-18.64,8.36-18.65,18.66v509.49c0,10.3,8.35,18.65,18.65,18.66h929.24c10.3-.02,18.64-8.36,18.65-18.66V63.03c0-10.3-8.35-18.64-18.65-18.66Z" fill="#fff"/>
      <path d="M362.73,44.37V591.18H198.01c-10.3-.01-18.64-8.36-18.65-18.66V63.03c0-10.3,8.35-18.65,18.65-18.66h164.71Z" fill="#f0f0f0"/>
      <circle cx="271.05" cy="317.78" r="48.46" fill="#0063e2"/>
      <polygon points="300.13 317.78 273.96 317.78 273.96 291.61 268.14 291.61 268.14 317.78 241.97 317.78 241.97 323.59 268.14 323.59 268.14 349.76 273.96 349.76 273.96 323.59 300.13 323.59 300.13 317.78" fill="#fff"/>
      <path d="M226.84,320.6c-7-1.59-13.98,2.79-15.57,9.8-.17,.75-.27,1.51-.31,2.27l-44.34,13.07,18.35,15.49,39.29-14.79c7.22-.14,12.96-6.1,12.83-13.32-.11-6.04-4.35-11.22-10.26-12.52h0Z" fill="#ffb6b6"/>
      <path d="M47.7,418.97c-10.21-.01-18.48-8.3-18.47-18.52,.01-7.92,5.07-14.96,12.58-17.5l89.84-30.33,70.08-25.53,8.6,30.1-61.87,40.77-96.9,20.6c-1.27,.27-2.57,.41-3.87,.41Z" fill="#0063e2"/>
      <polygon points="103.93 833.69 116.54 833.69 122.54 785.04 103.92 785.04 103.93 833.69" fill="#ffb6b6"/>
      <path d="M100.71,829.57h24.84s0,0,0,0c8.74,0,15.83,7.09,15.83,15.83v.51h-40.67s0-16.34,0-16.34Z" fill="#0a2b3e"/>
      <polygon points="7.21 833.69 19.82 833.69 25.82 785.04 7.2 785.04 7.21 833.69" fill="#ffb6b6"/>
      <path d="M3.99,829.57H28.83s0,0,0,0c8.74,0,15.83,7.09,15.83,15.83v.51H3.99s0-16.34,0-16.34Z" fill="#0a2b3e"/>
      <path d="M7.08,541.84c-5.77,13.45-7.04,28.4-3.6,42.63L0,807.79c-.07,4.32,3.42,7.86,7.74,7.86h13.03c3.9,0,7.19-2.9,7.68-6.77l14.65-115.79,25.72-87.46,27.78,67.91v133.32c0,4.45,3.75,7.99,8.2,7.72l11.95-.71c3.8-.23,6.88-3.19,7.24-6.98l13.77-143.64-16.46-107.01-114.21-14.41Z" fill="#0a2b3e"/>
      <path d="M108.43,354.06l-23.67-7.2-6.17-12.35h-30.4l-7.67,13.38s-30.87,11.32-31.9,65.85-5.14,141.99-5.14,141.99l121.71,17.35-16.76-219.02Z" fill="#0063e2"/>
      <path d="M143.37,563.32c3.02-6.52,.18-14.25-6.34-17.27-.7-.32-1.42-.58-2.16-.78l-3.57-46.08-18.97,14.73,6.3,41.5c-1.37,7.09,3.27,13.95,10.36,15.32,5.93,1.14,11.88-1.93,14.38-7.43h0Z" fill="#ffb6b6"/>
      <path d="M111.01,539.56l-27.01-68.99v-99.06c0-10.21,8.28-18.49,18.49-18.49,9.38,0,17.28,7.03,18.37,16.35l10.99,94.19,10.4,73.86-31.23,2.15Z" fill="#0063e2"/>
      <path d="M683.74,108.33c-3.11,0-5.63,2.53-5.64,5.64v94.38c0,3.11,2.52,5.63,5.64,5.64h380.49c3.11,0,5.63-2.53,5.64-5.64V113.96c0-3.11-2.53-5.63-5.64-5.64h-380.49Z" fill="#fff"/>
      <path d="M683.74,108.33c-3.11,0-5.63,2.53-5.64,5.64v94.38c0,3.11,2.52,5.63,5.64,5.64h380.49c3.11,0,5.63-2.53,5.64-5.64V113.96c0-3.11-2.53-5.63-5.64-5.64h-380.49Z" fill="#e6e6e6"/>
      <path d="M684.44,207.64h379.08V114.67h-379.08v92.98Z" fill="#fff"/>
      <path d="M727.54,141.43c-2.72,0-4.93,2.21-4.93,4.93s2.21,4.93,4.93,4.93h292.87c2.72,0,4.93-2.21,4.93-4.93,0-2.72-2.21-4.93-4.93-4.93h-292.87Z" fill="#e4e4e4"/>
      <path d="M727.54,171.02c-2.72,0-4.93,2.22-4.92,4.94,0,2.72,2.21,4.92,4.92,4.92h292.87c2.72,0,4.94-2.2,4.94-4.92,0-2.72-2.2-4.94-4.92-4.94h-292.89Z" fill="#e4e4e4"/>
      <path d="M419.14,268.48c-3.11,0-5.63,2.53-5.64,5.64v94.38c0,3.11,2.52,5.63,5.64,5.64h380.49c3.11,0,5.63-2.53,5.64-5.64v-94.38c0-3.11-2.53-5.63-5.64-5.64H419.14Z" fill="#fff"/>
      <path d="M419.14,268.48c-3.11,0-5.63,2.53-5.64,5.64v94.38c0,3.11,2.52,5.63,5.64,5.64h380.49c3.11,0,5.63-2.53,5.64-5.64v-94.38c0-3.11-2.53-5.63-5.64-5.64H419.14Z" fill="#e6e6e6"/>
      <path d="M419.85,367.79h379.08v-92.98H419.85v92.98Z" fill="#fff"/>
      <path d="M462.95,301.58c-2.72,0-4.93,2.21-4.93,4.93s2.21,4.93,4.93,4.93h292.87c2.72,0,4.93-2.21,4.93-4.93,0-2.72-2.21-4.93-4.93-4.93H462.95Z" fill="#e4e4e4"/>
      <path d="M462.95,331.17c-2.72,0-4.93,2.22-4.92,4.94,0,2.72,2.21,4.92,4.92,4.92h292.87c2.72,0,4.94-2.2,4.94-4.92,0-2.72-2.2-4.93-4.92-4.94H462.95Z" fill="#e4e4e4"/>
      <path d="M882.93,521.79c6.4-.71,11.02-6.47,10.31-12.87-.08-.68-.21-1.36-.4-2.02l33.72-24.09-20.1-7.74-28.94,24.06c-6.08,2.24-9.19,8.97-6.96,15.05,1.87,5.09,6.98,8.23,12.36,7.6Z" fill="#ffb7b7"/>
      <path d="M901.66,505.93l-11.19-19.11,.24-.27,45.14-51.38,35.04-59.76,30.43,3.88,.45,9.2-.09,.14-48.35,72.68-.05,.04-51.62,44.59Z" fill="#0063e2"/>
      <polygon points="1050.78 829.24 1033.57 829.24 1025.38 762.86 1050.78 762.86 1050.78 829.24" fill="#ffb7b7"/>
      <path d="M1055.17,845.92h-55.49v-.7c0-11.93,9.67-21.6,21.6-21.6h33.89s0,22.3,0,22.3Z" fill="#0a2b3e"/>
      <polygon points="902.67 828.67 885.93 824.68 893.38 758.21 918.09 764.11 902.67 828.67" fill="#ffb7b7"/>
      <path d="M903.07,845.92l-53.97-12.89,.16-.68c2.77-11.6,14.42-18.76,26.02-15.99h0s32.96,7.87,32.96,7.87l-5.18,21.69Z" fill="#0a2b3e"/>
      <path d="M969.55,345.06v-28.97c.01-21.44,17.41-38.8,38.84-38.79,21.42,.01,38.78,17.37,38.79,38.79v28.97c0,2.88-2.34,5.21-5.21,5.21h-67.21c-2.88,0-5.21-2.34-5.21-5.21Z" fill="#0a2b3e"/>
      <circle cx="998.79" cy="321.37" r="28.46" fill="#ffb7b7"/>
      <path d="M960.37,318.41c.02-16.95,13.76-30.69,30.71-30.71h5.79c16.95,.02,30.69,13.76,30.71,30.71v.58h-12.24l-4.18-11.69-.84,11.69h-6.33l-2.11-5.9-.42,5.9h-41.09v-.58Z" fill="#0a2b3e"/>
      <path d="M1015.39,471.58l-72.46-2.76-4.05-47.41c-3.12-8.68-3.17-16.13-.15-22.14,2.6-4.94,6.97-8.72,12.24-10.58l15.86-19.15c4.13-4.99,10.28-7.85,16.76-7.81l41.19,.28c.99-.6,7.02-3.66,18.9,1.49,12.88,5.59,9.89,24.99,9.86,25.18l-.03,.18-.14,.12-27.4,23.08-10.56,59.51Z" fill="#0063e2"/>
      <path d="M943.51,463.73l-34.28,62.49-25.41,278.04c-.33,3.65,1.94,7.03,5.44,8.1l15.43,4.71c4.28,1.31,8.77-1.28,9.79-5.64l50.09-214.34,58.78,210.58c.91,3.27,3.86,5.57,7.26,5.65l20.74,.52c4.64,.12,8.34-3.85,7.89-8.47l-23.13-240.67-20.94-96.55-71.67-4.42Z" fill="#0a2b3e"/>
      <path d="M721.68,417.41c-2.96-.96-6.14,.66-7.1,3.62l-29.11,89.78c-.96,2.96,.66,6.14,3.62,7.1l361.95,117.33c2.96,.96,6.14-.67,7.1-3.62l29.11-89.78c.96-2.96-.66-6.14-3.62-7.1l-361.95-117.33Z" fill="#fff"/>
      <path d="M721.68,417.41c-2.96-.96-6.14,.66-7.1,3.62l-29.11,89.78c-.96,2.96,.66,6.14,3.62,7.1l361.95,117.33c2.96,.96,6.14-.67,7.1-3.62l29.11-89.78c.96-2.96-.66-6.14-3.62-7.1l-361.95-117.33Z" fill="#e6e6e6"/>
      <path d="M691.72,512.1l360.61,116.9,28.67-88.44-360.61-116.9-28.67,88.44Z" fill="#fff"/>
      <path d="M753.14,462.4c-2.59-.84-5.37,.58-6.21,3.17-.84,2.59,.58,5.37,3.17,6.21l278.6,90.31c2.59,.84,5.37-.58,6.21-3.17,.84-2.59-.58-5.37-3.17-6.21h0s-278.6-90.31-278.6-90.31Z" fill="#0063e2"/>
      <path d="M744.01,490.55c-2.59-.83-5.37,.59-6.2,3.19-.83,2.58,.58,5.35,3.16,6.2l278.6,90.31c2.59,.85,5.37-.57,6.22-3.16,.84-2.59-.57-5.37-3.16-6.22h-.02s-278.6-90.32-278.6-90.32Z" fill="#0063e2"/>
      <path d="M1035.08,564.89c4.79-4.3,5.19-11.67,.89-16.47-.46-.51-.96-.98-1.5-1.4l13.38-39.22-20.84,5.42-9.51,36.41c-3.64,5.36-2.24,12.65,3.11,16.29,4.48,3.04,10.47,2.62,14.47-1.02Z" fill="#ffb7b7"/>
      <path d="M1041.06,541.09l-20.22-9.01,6.79-68.42-6.32-68.99,27-14.57,5.72,7.22v.16s3.04,87.24,3.04,87.24l-.02,.07-15.99,66.31Z" fill="#0063e2"/>
      <circle cx="69.12" cy="286.64" r="31.75" fill="#ffb8b8"/>
      <path d="M72.75,292.6c4.12,.54,8.01-2.06,9.09-6.08,1.03-4.55,4.48-8.17,8.98-9.4,5.82-1.33,12.94,1.41,17.21-3,1.85-2.04,2.61-4.85,2.04-7.55-.79-4.29-3.85-7.53-7.19-10.12-7.02-5.43-15.52-8.6-24.39-9.11-4.59-.13-9.18,.1-13.73,.68-4.77,.3-9.48,1.16-14.04,2.57-10.57,3.99-18.37,13.09-20.68,24.15-2.11,11.04,.75,22.45,7.83,31.19,4.19,5.21,9.58,9.32,15.72,11.97,1.46,.69,3.14,.78,4.66,.24,3.82-1.52,3.2-6.26,1.46-9.41-1.87-3.38-4.74-6.65-3.24-10.77,.75-1.91,2.2-3.46,4.04-4.35,3.8-1.94,8.05-1.48,12.14-1.01h.11Z" fill="#0a2b3e"/>
    </g>
  </g>
</svg>