<?xml version="1.0" encoding="UTF-8"?>
<svg id="Capa_2" data-name="Capa 2" xmlns="http://www.w3.org/2000/svg" viewBox="0 0 1102.42 861.39">
  <g id="Ilustración">
    <g>
      <path d="M1077.08,579.8c-4.84-5.79-4.06-14.41,1.73-19.25,.62-.52,1.28-.98,1.98-1.38l-8.94-47.73,23.26,9.77,4.93,43.83c3.32,6.82,.48,15.05-6.34,18.37-5.71,2.78-12.58,1.28-16.62-3.61h0Z" fill="#ffb8b8"/>
      <rect id="f38b076b-59d8-4a3a-9764-ba710fdc09c8" x=".44" y="28" width="1021.37" height="484.66" fill="#e6e6e6"/>
      <rect id="a3e272cc-df3f-4d80-b321-62d216886f20" x="29.64" y="69.56" width="962.96" height="404.36" fill="#fff"/>
      <rect id="e835d13b-e721-4725-9202-bbf482b4bd3b" width="1021.37" height="43.39" fill="#0063e2"/>
      <circle id="be4979c6-1dab-43b6-a6ee-71cd46d62419" cx="32.24" cy="20.07" r="8.04" fill="#fff"/>
      <circle id="b0ea5047-583b-4910-b1a7-8a4b76ab40b8" cx="62.77" cy="20.07" r="8.04" fill="#fff"/>
      <circle id="f37d9a3e-ad35-4554-bb71-f31101cbe222" cx="93.3" cy="20.07" r="8.04" transform="translate(58.54 108.95) rotate(-80.78)" fill="#fff"/>
      <path id="bb164f67-fbc5-46a9-bc53-51bf316e72eb-622" d="M85.96,329.72c-2.33,0-4.21,1.9-4.2,4.24,0,2.32,1.89,4.2,4.2,4.2h231.57c2.33,0,4.21-1.9,4.2-4.24,0-2.32-1.89-4.2-4.2-4.2H85.96Z" fill="#e6e6e6"/>
      <path id="a443cdab-5007-48b4-8b70-6d9701024bb2-623" d="M85.96,355.04c-2.33,0-4.21,1.9-4.2,4.24,0,2.32,1.89,4.2,4.2,4.2h118.22c2.33,0,4.21-1.9,4.2-4.24,0-2.32-1.89-4.2-4.2-4.2H85.96Z" fill="#e6e6e6"/>
      <path id="f7d6bd93-8cee-4d05-900c-0964279c7a84-624" d="M317.82,402.85h-87.96c-2.37,0-4.29-1.93-4.3-4.3v-14.09c0-2.37,1.93-4.29,4.3-4.3h87.96c2.37,0,4.29,1.93,4.3,4.3v14.09c0,2.37-1.93,4.29-4.3,4.3Z" fill="#0063e2"/>
      <path id="b9375ed9-a91c-4567-8040-b14da9424350-625" d="M317.82,256.09h-87.96c-2.37,0-4.29-1.93-4.3-4.3v-14.09c0-2.37,1.93-4.29,4.3-4.3h87.96c2.37,0,4.29,1.93,4.3,4.3v14.09c0,2.37-1.93,4.29-4.3,4.3Z" fill="#0063e2"/>
      <path id="e51c2c64-3ae5-421d-97d2-6993e1b4a0e1-626" d="M472.86,140.28c-3.04,0-5.5,2.48-5.5,5.52,0,3.03,2.46,5.49,5.5,5.5h460.55c3.04,0,5.5-2.48,5.5-5.52,0-3.03-2.46-5.49-5.5-5.5H472.86Z" fill="#e6e6e6"/>
      <path id="bb6ebd78-ef21-4bf3-8138-c36b4f5ae8d3-627" d="M472.86,173.32c-3.04,0-5.51,2.47-5.51,5.51s2.47,5.51,5.51,5.51h312.65c3.04,0,5.51-2.47,5.51-5.51s-2.47-5.51-5.51-5.51H472.86Z" fill="#e6e6e6"/>
      <path id="b0279cb1-e051-4fdd-8ff4-a6bdaa244cb4-628" d="M472.86,205.62c-3.04,0-5.51,2.47-5.51,5.51s2.47,5.51,5.51,5.51h460.55c3.04,0,5.51-2.47,5.51-5.51s-2.47-5.51-5.51-5.51H472.86Z" fill="#e6e6e6"/>
      <path id="b8fe22d0-d29e-4fd2-8057-acce26acd380-629" d="M472.86,238.66c-3.04,0-5.51,2.47-5.51,5.51s2.47,5.51,5.51,5.51h312.65c3.04,0,5.51-2.47,5.51-5.51s-2.47-5.51-5.51-5.51H472.86Z" fill="#e6e6e6"/>
      <path id="e1b0698e-7706-4223-aefd-57a6dfde5692-630" d="M934.76,310.13h-87.96c-2.37,0-4.29-1.93-4.3-4.3v-14.09c0-2.37,1.93-4.29,4.3-4.3h87.96c2.37,0,4.29,1.93,4.3,4.3v14.09c0,2.37-1.93,4.29-4.3,4.3Z" fill="#0063e2"/>
      <path id="f8f2501b-24d6-4bc5-9452-5f6747352c8d-631" d="M185.69,146.25c-1.56,0-2.83,2.03-2.82,4.53,0,2.49,1.27,4.51,2.82,4.52h133.42c1.56,0,2.83-2.03,2.82-4.53,0-2.49-1.27-4.51-2.82-4.52H185.69Z" fill="#e4e4e4"/>
      <path id="bf240ba4-7ac6-4616-9791-82be96e2dade-632" d="M185.69,172.46c-1.56,0-2.83,2.03-2.82,4.53,0,2.49,1.27,4.51,2.82,4.52h133.42c1.56,0,2.83-2.03,2.82-4.53,0-2.49-1.27-4.51-2.82-4.52H185.69Z" fill="#e4e4e4"/>
      <path id="a4452d36-433f-4f97-99ed-f04c2decb731-633" d="M185.69,198.36c-1.56,0-2.83,2.03-2.82,4.53,0,2.49,1.27,4.51,2.82,4.52h57.41c1.56,0,2.83-2.03,2.82-4.53,0-2.49-1.27-4.51-2.82-4.52h-57.41Z" fill="#e4e4e4"/>
      <circle cx="117.95" cy="176.49" r="36.2" fill="#e4e4e4"/>
      <path d="M867.61,302.96c-.97,7.48,4.31,14.34,11.8,15.31,.8,.1,1.6,.14,2.41,.1l18.09,45.06,14.37-20.74-19.39-39.61c-.86-7.54-7.67-12.95-15.21-12.09-6.31,.72-11.3,5.67-12.07,11.97Z" fill="#ffb8b8"/>
      <polygon points="1071.61 844.93 1054.95 844.93 1047.03 780.67 1071.62 780.67 1071.61 844.93" fill="#ffb8b8"/>
      <path d="M1075.86,861.08h-53.72v-.68c0-11.55,9.36-20.91,20.91-20.91h32.81s0,21.59,0,21.59Z" fill="#0a2b3e"/>
      <polygon points="1017.1 844.4 1001.21 839.37 1013.05 775.71 1036.49 783.13 1017.1 844.4" fill="#ffb8b8"/>
      <path d="M1016.27,861.08l-51.21-16.21,.21-.65c3.49-11.01,15.24-17.11,26.24-13.62h0s31.28,9.9,31.28,9.9l-6.52,20.58Z" fill="#0a2b3e"/>
      <path d="M997.36,530.86s-24.72,38.81-15.98,73.46,18.25,101.23,18.25,101.23l47.36,112.71,35.3-1.44-35.06-132.89,1.39-88.85s24.37-42.47,19.62-55.68c-4.75-13.22-70.88-8.53-70.88-8.53Z" fill="#0a2b3e"/>
      <path d="M1078.12,544.74s3.04,38.5-6.47,54.81c-9.51,16.31-19.65,78.37-19.65,78.37l-16.17,124.13-33.49-10.9,28.56-139.07,22.45-109.4,24.77,2.05Z" fill="#0a2b3e"/>
      <path d="M1090,358.34l-26.13-17.96-39.76-1.15-13.85,13.58-21.13,10.79-1.96,175.79s63.28,30.33,97.32,15.69l16.38-136.94c6.79-27.18-10.87-59.79-10.87-59.79Z" fill="#0063e2"/>
      <path d="M994.43,410.57h-69.7l-45.79-78.82,29.77-11.79,25.22,44.85,36.5-3.3,22.79-1.1c13.84-.67,25.61,10.01,26.28,23.86,.07,1.43,.02,2.85-.16,4.27h0c-1.56,12.58-12.24,22.03-24.91,22.04Z" fill="#0063e2"/>
      <circle cx="1047.23" cy="290.27" r="34.48" fill="#ffb8b8"/>
      <path d="M1088.77,282.43c-1.06-7.57-6.18-14.76-13.48-17.05-2.9-8.41-10.57-14.6-19.04-17.3-16.14-5.15-33.72,1.27-42.76,15.6-.65,1.02-2.64,3.53-2.59,4.74,.07,1.55,2.44,3.14,3.62,4.12,2.94,2.28,6.12,4.23,9.47,5.85,12.4,6.43,8.27,16.53,8.1,27.97-.08,5.56,1.78,10.31,6.52,13.49,6.85,4.59,16.64,2.76,24.09,.92,8.45-2.09,15.48-9.51,20.3-16.67,4.27-6.34,6.82-14.09,5.76-21.66Z" fill="#0a2b3e"/>
      <polygon points="1089.01 403.22 1102.42 550.37 1059.32 548.06 1089.01 403.22" fill="#0063e2"/>
      <polygon points="31.62 848.87 44.55 848.87 50.69 799.02 31.62 799.02 31.62 848.87" fill="#a0616a"/>
      <path d="M28.33,844.65h25.45s0,0,0,0c8.96,0,16.22,7.26,16.22,16.22v.53H28.33s0-16.74,0-16.74Z" fill="#0a2b3e"/>
      <polygon points="150.73 848.87 163.65 848.87 169.8 799.02 150.73 799.02 150.73 848.87" fill="#a0616a"/>
      <path d="M147.44,844.65h25.45s0,0,0,0c8.96,0,16.22,7.26,16.22,16.22v.53h-41.67s0-16.74,0-16.74Z" fill="#0a2b3e"/>
      <polygon points="135.13 448.44 143.56 502.19 63.45 503.25 73.99 451.6 135.13 448.44" fill="#a0616a"/>
      <path d="M141.24,489.07l25.51,67.94,3.16,281.54h-21.61l-51.65-226.2-47.43,220.3H28.14l14.76-247.7s-4.35-49.72,17.92-79.05l5.42-15.66,75-1.15Z" fill="#0a2b3e"/>
      <path d="M31.8,542.03c8.43-2.3,13.4-10.99,11.1-19.41-.24-.9-.57-1.77-.97-2.61l34.08-111.11-25.07-4.97-31.17,108.91c-7.67,4.28-10.42,13.96-6.14,21.63,3.58,6.42,11.09,9.55,18.16,7.57h0Z" fill="#a0616a"/>
      <path d="M76.74,478.13c-.47,0-.93-.05-1.39-.14h0c-3.17-.63-5.53-3.3-5.77-6.53-.79-10.85-4.72-29.73-11.67-56.13-6.21-23.74,8-48.01,31.74-54.22,13.33-3.49,27.51-.59,38.41,7.83,9.49,7.27,15.6,18.1,16.92,29.99,3.45,30.42-3.06,60.97-6.02,72.69-.8,3.14-3.6,5.37-6.84,5.44l-55.22,1.07c-.05,0-.1,0-.15,0Z" fill="#0063e2"/>
      <path d="M231.02,380.53c-.33,.74-.6,1.51-.81,2.3l-69.12,23.49-13.36-11.67-20.24,17.86,21.64,22.95c3.59,3.81,9.26,4.79,13.93,2.41l73.96-37.78c7.27,4.46,16.79,2.18,21.25-5.09,4.46-7.27,2.18-16.79-5.09-21.25-7.27-4.46-16.79-2.18-21.25,5.09-.33,.55-.63,1.11-.9,1.69h0Z" fill="#a0616a"/>
      <path d="M158.67,407.6l-25.2,22.01c-2.76,2.41-6.94,2.12-9.35-.63-.21-.24-.41-.5-.58-.78l-18.02-28.07c-6.64-7.69-5.8-19.3,1.89-25.95,7.66-6.62,19.24-5.81,25.9,1.83l25.31,21.56c2.78,2.37,3.12,6.55,.74,9.34-.21,.25-.44,.48-.68,.69h0Z" fill="#0063e2"/>
      <path d="M72.03,437.34l-31.14-12.23c-3.41-1.34-5.08-5.18-3.74-8.59,.12-.3,.26-.6,.42-.88l16.61-28.92c3.77-9.44,14.47-14.03,23.91-10.26,9.4,3.75,14,14.4,10.3,23.82l-7.48,32.39c-.82,3.56-4.38,5.79-7.95,4.96-.32-.07-.63-.17-.93-.29h0Z" fill="#0063e2"/>
      <circle cx="95.11" cy="318.98" r="33.87" fill="#a0616a"/>
      <path d="M118.41,305.36c7.27-.04,14.53-.08,21.8-.12,.52-4.95-1.69-9.88-4.9-13.69-3.38-3.66-7.24-6.85-11.48-9.49-4.17-2.86-8.49-5.79-13.44-6.79-4.15-.84-8.45-.26-12.64,.33-5.57,.77-11.13,1.55-16.69,2.32-6.11,.85-12.5,1.81-17.46,5.47-6.71,4.95-9.28,13.63-11.43,21.69l-11.93,44.59,70.49,7.39c2.55,.44,5.16,.36,7.68-.22,2.57-.64,4.5-2.76,4.91-5.37,.2-2.87-2.08-5.23-3.93-7.44-9.04-11.21-10.24-26.83-3-39.28l2.02,.59Z" fill="#0a2b3e"/>
    </g>
  </g>
</svg>