<?xml version="1.0" encoding="UTF-8"?>
<svg id="Capa_2" data-name="Capa 2" xmlns="http://www.w3.org/2000/svg" viewBox="0 0 1328.05 882.85">
  <g id="Ilustración">
    <g>
      <path d="M1091.94,144.89H414.06V0h677.88V144.89Z" fill="#fff"/>
      <circle cx="501.9" cy="72.45" r="36.81" fill="#0063e2"/>
      <path d="M586.9,47.91c-3.39,0-6.13,2.75-6.13,6.13s2.75,6.13,6.13,6.13h447.88c3.39,0,6.13-2.76,6.12-6.15,0-3.38-2.74-6.11-6.12-6.12h-447.88Z" fill="#0a2b3e"/>
      <path d="M586.9,84.71c-3.39,0-6.14,2.73-6.15,6.12,0,3.39,2.73,6.14,6.12,6.15h283.16c3.39,0,6.14-2.74,6.15-6.12,0-3.39-2.74-6.14-6.12-6.15,0,0-.01,0-.02,0h-283.13Z" fill="#0a2b3e"/>
      <path d="M1091.94,144.89H414.06V0h677.88V144.89Zm-667.53-10.35h657.18V10.35H424.41v124.19Z" fill="#ccc"/>
      <path d="M1091.94,326H414.06V181.11h677.88v144.89Z" fill="#fff"/>
      <circle cx="501.9" cy="253.56" r="36.81" fill="#e6e6e6"/>
      <path d="M586.9,229.02c-3.39,0-6.13,2.75-6.13,6.13s2.75,6.13,6.13,6.13h447.88c3.39,0,6.13-2.76,6.12-6.15,0-3.38-2.74-6.11-6.12-6.12h-447.88Z" fill="#e6e6e6"/>
      <path d="M586.9,265.83c-3.39,0-6.14,2.73-6.15,6.12,0,3.39,2.73,6.14,6.12,6.15h283.16c3.39,0,6.13-2.75,6.13-6.13s-2.75-6.13-6.13-6.13h-283.13Z" fill="#e6e6e6"/>
      <path d="M1091.94,326H414.06V181.11h677.88v144.89Zm-667.53-10.35h657.18v-124.19H424.41v124.19Z" fill="#e6e6e6"/>
      <path d="M1091.94,507.12H414.06v-144.89h677.88v144.89Z" fill="#fff"/>
      <circle cx="501.9" cy="434.67" r="36.81" fill="#e6e6e6"/>
      <path d="M586.9,410.13c-3.39,0-6.13,2.75-6.13,6.13s2.75,6.13,6.13,6.13h447.88c3.39,0,6.13-2.76,6.12-6.15,0-3.38-2.74-6.11-6.12-6.12h-447.88Z" fill="#e6e6e6"/>
      <path d="M586.9,446.94c-3.39,0-6.14,2.73-6.15,6.12,0,3.39,2.73,6.14,6.12,6.15h283.16c3.39,0,6.13-2.75,6.13-6.13s-2.75-6.13-6.13-6.13h-283.13Z" fill="#e6e6e6"/>
      <path d="M1091.94,507.12H414.06v-144.89h677.88v144.89Zm-667.53-10.35h657.18v-124.19H424.41v124.19Z" fill="#e6e6e6"/>
      <g>
        <circle cx="364.14" cy="633.37" r="36.81" fill="#0063e2"/>
        <polygon points="360.63 648.9 349.61 634.74 356.02 629.76 361.24 636.46 378.86 617.86 384.75 623.44 360.63 648.9" fill="#fff"/>
      </g>
      <path d="M164.66,615.54c-4.58-5.88-3.52-14.36,2.36-18.94,.63-.49,1.3-.92,2-1.29l-2.82-30.71,18.24-6.26,3.37,43.42c3.05,6.85-.04,14.87-6.88,17.91-5.73,2.55-12.46,.84-16.28-4.13Z" fill="#ffb8b8"/>
      <path d="M184.25,439.3s12.52-26.27,23.64-17.03c11.12,9.24-15.25,86.93-15.25,86.93l-4.01,75.42-21.14-2.11-5.98-73.48,22.74-69.72Z" fill="#0063e2"/>
      <polygon points="16.32 828.01 32.01 840.71 88.48 786.22 65.32 767.47 16.32 828.01" fill="#ffb8b8"/>
      <path d="M16.46,819.64l30.91,25.02h0c10.88,8.81,12.56,24.76,3.75,35.64l-.52,.64L0,839.98l16.46-20.34Z" fill="#0a2b3e"/>
      <polygon points="234.44 863.27 254.63 863.27 264.24 785.39 234.43 785.39 234.44 863.27" fill="#ffb8b8"/>
      <path d="M229.29,856.68h39.77s0,0,0,0c14,0,25.34,11.35,25.34,25.34v.82h-65.11s0-26.16,0-26.16Z" fill="#0a2b3e"/>
      <path d="M269.87,498.14s37.88,46.12,29.65,92.23c-8.24,46.12-14.82,80.7-14.82,80.7l-13.18,103.76s4.94,28.26-1.65,35.54c0,0,9.88,17.16-8.24,23.75-18.12,6.59-27.89-2.28-27.89-2.28,0,0-13.28-19.14-5.05-24.08l3.47-203.63-131.94,172.34s-2.43,20.96-19.33,21.19l-20.2,15.05-23.06-13.18,11.53-14.82s-6.59-16.47,8.24-19.76l85.65-112,21.41-57.65s11.53-44.47,42.82-62.59v-19.28l62.59-15.31Z" fill="#0a2b3e"/>
      <path d="M204.81,418.26h0c10.32-12.2,28.16-14.72,41.45-5.85l1.37,.91h0c14.62,16.56,24.45,36.79,28.42,58.51l6.17,33.72-77.41,16.77-18.15-62.59c-4.75-16.39,2.88-33.84,18.15-41.47h0Z" fill="#0063e2"/>
      <path d="M331.99,622.71c-8.11-2.65-12.53-11.37-9.88-19.48,.28-.86,.64-1.7,1.07-2.5l-22.33-27.33,13.3-17.62,30.99,39.04c7.27,4.55,9.48,14.13,4.94,21.4-3.8,6.08-11.28,8.77-18.09,6.5h0Z" fill="#ffb8b8"/>
      <path d="M237.75,442.97s-4.94-32.94,11.53-31.29c16.47,1.65,41.18,92.23,41.18,92.23l44.47,74.12-21.41,11.53-52.71-65.88-23.06-80.7Z" fill="#0063e2"/>
      <path d="M267.91,394.81h-78.43c-3.36,0-6.08-2.73-6.09-6.09v-33.81c0-25.02,20.28-45.3,45.3-45.3s45.3,20.28,45.3,45.3v33.81c0,3.36-2.73,6.08-6.09,6.09Z" fill="#0a2b3e"/>
      <circle cx="238.01" cy="360.81" r="33.21" fill="#ffb8b8"/>
      <path d="M284.72,358.3h-41.8l-.43-6.89-2.14,6.89h-6.44l-.85-13.65-4.25,13.65h-12.45v-.68c0-19.76,14.01-35.83,31.23-35.83h5.89c17.22,0,31.23,16.08,31.23,35.83v.68Z" fill="#0a2b3e"/>
      <path d="M244.65,401.12c-.51,0-1.02-.04-1.53-.12l-49.75-7.66v-51.82c0-11.02,8.94-19.96,19.96-19.96h34.81l-1.36,1.38c-18.86,19.21-4.65,50.35,5.5,67.2,1.53,2.49,1.26,5.68-.67,7.87-1.75,2.01-4.29,3.14-6.96,3.1Z" fill="#0a2b3e"/>
      <path id="Path_498-2330" data-name="Path 498-2330" d="M1172.98,601.51c5.03-6.54,3.82-15.92-2.72-20.95-.7-.54-1.44-1.01-2.22-1.42l2.95-34.01-20.23-6.83-3.49,48.08c-3.33,7.6,.12,16.45,7.72,19.79,6.35,2.79,13.79,.86,17.99-4.66h0Z" fill="#ffb8b8"/>
      <path id="Path_499-2331" data-name="Path 499-2331" d="M1273.92,865.91h-18.2l-8.66-70.25h26.88v70.25Z" fill="#ffb8b8"/>
      <path id="Path_500-2332" data-name="Path 500-2332" d="M1242.71,860.7h35.12v22.11h-57.24c0-12.21,9.9-22.11,22.11-22.11h0Z" fill="#0a2b3e"/>
      <path id="Path_501-2333" data-name="Path 501-2333" d="M1232.59,819.29l-17.68,4.35-25.18-66.15,26.1-6.42,16.76,68.22Z" fill="#ffb8b8"/>
      <path id="Path_502-2334" data-name="Path 502-2334" d="M1201.28,821.06l34.1-8.39,5.29,21.47-55.58,13.68c-2.92-11.86,4.33-23.84,16.19-26.76h0s0,0,0,0Z" fill="#0a2b3e"/>
      <path id="Path_503-2335" data-name="Path 503-2335" d="M1252.61,843.5c-3.45,0-6.34-2.59-6.69-6.02l-20.95-195.22-18.24,59.7,25.83,93.24c.92,3.31-.8,6.78-3.99,8.05l-20.53,8.21c-3.46,1.38-7.38-.3-8.76-3.75-.04-.09-.07-.19-.11-.28l-31.65-90.81c-3.47-9.92-5-20.4-4.52-30.9l4.42-98.01,116.36,4.93-1.82,242.48c-.04,3.5-2.74,6.39-6.23,6.67l-22.6,1.7c-.18,0-.35,.01-.52,.01Z" fill="#0a2b3e"/>
      <circle id="Ellipse_83" data-name="Ellipse 83" cx="1233.34" cy="331.69" r="39.13" fill="#ffb8b8"/>
      <path id="Path_504-2336" data-name="Path 504-2336" d="M1262.12,599.02c-10.3,0-23.1-.84-36.35-1.71-18.1-1.19-36.81-2.42-50.78-1.61-3.84,.38-7.59-1.26-9.93-4.32-14.4-18.44,7.81-90.34,8.76-93.39l18.07-80.4,.78,.18-.78-.18c3.98-17.68,16.68-30.73,33.16-34.04,15.42-3.1,30.34,3.08,39.9,16.53,.51,.71,1.01,1.45,1.52,2.2,31.15,46.13,13.53,160.73,12.35,168.12,1.65,1.97,10.54,13.11,8.1,20.85-1,3.15-3.7,5.3-8.03,6.37-5.52,1.09-11.15,1.56-16.78,1.39h0Z" fill="#0063e2"/>
      <path id="Path_505-2337" data-name="Path 505-2337" d="M1175.62,599.05c-3.54,0-8.33-1.31-14.77-3.98-2.77-1.15-11.2-4.66-.97-94.1,5.03-43.93,12.23-87.56,12.3-88l.07-.42,.39-.18c.18-.08,18.58-8.51,21.78-19.35,.11-.37,.23-.74,.37-1.09,1.83-5,7.27-7.68,12.35-6.07,5.36,1.28,8.8,6.5,7.87,11.93-1.11,7.07-3.26,13.93-6.36,20.38-8.65,17.86-14.52,65.2-14.58,65.67-.33,4.04-8.18,99.84-9.7,107.11-.53,2.54-1.5,5.65-4.35,7.15-1.37,.68-2.88,1-4.41,.96h0Z" fill="#0a2b3e"/>
      <path id="Path_506-2338" data-name="Path 506-2338" d="M1218.36,595.38c-.71,0-1.41-.24-1.97-.68-11.51-8.75,7.12-114.78,18.16-151.36,2.21-7.33,4.18-13.6,5.86-18.65h0c3.05-9.06,5.18-18.4,6.35-27.89,.61-5.14,1.93-8.07,4.04-8.97,1.47-.63,3.19-.2,5.13,1.26,10.21-.5,20.12,3.66,29.31,8.25l8.27,4.13,9.28,164.32c-.26,10.49-20.93,17.89-29.95,18.36-14.48,.76-40.48,3.12-51.93,10.37-.75,.52-1.64,.82-2.55,.85h0Z" fill="#0a2b3e"/>
      <path id="Path_507-2339" data-name="Path 507-2339" d="M1166.66,564.55c-.14,0-.27,0-.41-.01l-18.75-1.15c-3.71-.23-6.54-3.42-6.31-7.14,.01-.2,.03-.4,.06-.59l8.48-56.2,15.97-78.85c1.55-7.66,9.01-12.61,16.67-11.06,.48,.1,.96,.22,1.43,.37h0c6.68,2.13,10.81,8.81,9.73,15.74l-12.69,79.01-7.51,54.08c-.48,3.32-3.32,5.8-6.68,5.81h0Z" fill="#0a2b3e"/>
      <path id="Path_508-2340" data-name="Path 508-2340" d="M1230.7,503.04c4.32-7.03,13.52-9.22,20.55-4.9,.75,.46,1.46,.99,2.11,1.57l30.74-14.85,13.58,16.48-43.7,20.36c-5.91,5.82-15.42,5.74-21.24-.18-4.87-4.95-5.71-12.59-2.04-18.48h0Z" fill="#ffb8b8"/>
      <path id="Path_509-2341" data-name="Path 509-2341" d="M1273.4,518.98c-3.11,0-5.82-2.13-6.55-5.16l-4.46-18.56c-.7-2.87,.55-5.85,3.09-7.36l26.92-16.11-13.76-50.39c-2.52-9.12,2.84-18.55,11.96-21.07,8.83-2.44,18.02,2.51,20.85,11.22l15.2,46.4c3.83,11.61-.31,24.36-10.23,31.5l-39.06,28.26c-1.15,.83-2.53,1.28-3.95,1.28Z" fill="#0a2b3e"/>
      <path id="Path_561-2356" data-name="Path 561-2356" d="M1247.73,342.12s-4.76-26.33-15.6-23.18c-10.83,3.15-38.72,6.36-38.77-6.03-.05-12.4,26.25-23.36,41.75-21.87,15.5,1.48,41.87,6.02,40.42,29.27-1.16,14.64-5.69,28.82-13.23,41.43l-14.58-19.62Z" fill="#0a2b3e"/>
    </g>
  </g>
</svg>