<?xml version="1.0" encoding="UTF-8"?>
<svg id="Capa_2" data-name="Capa 2" xmlns="http://www.w3.org/2000/svg" viewBox="0 0 1120.31 946.11">
  <g id="Ilustración">
    <g>
      <path d="M219.4,111.93c-8.54,.94-14.7,8.63-13.76,17.17,.1,.91,.28,1.81,.54,2.69l-44.99,32.15,26.82,10.32,38.61-32.11c8.11-2.98,12.26-11.98,9.28-20.08-2.5-6.78-9.32-10.97-16.5-10.14h0Z" fill="#ffb8b8"/>
      <path d="M215.22,160.35l-55.8,56.15c-7.65,7.65-17.73,12.37-28.5,13.35l-68.95,6.29c-5.11,.49-10.19-1.11-14.1-4.43-7.86-6.58-8.9-18.29-2.32-26.15,2.69-3.22,6.4-5.43,10.51-6.27l70.44-15,64.13-47.28c1.81-1.02,4.03-1,5.83,.04l17.44,14.29c2.15,1.18,3.31,3.6,2.89,6.01-.2,1.13-.75,2.18-1.57,2.99Z" fill="#0063e2"/>
      <path d="M884.27,190.52c.85-7.85-3.3-15.4-10.39-18.88L526.58,1.91c-9.29-4.54-20.5-.7-25.04,8.59h0s0,.01,0,.01l-130.25,266.5c-4.53,9.29-.68,20.5,8.6,25.05l347.29,169.74c9.29,4.53,20.5,.68,25.05-8.6l130.25-266.5c.95-1.94,1.56-4.03,1.79-6.18Z" fill="#f2f2f2"/>
      <path d="M680.81,782.03H230.19c-11.81-.01-21.38-9.59-21.4-21.4V148.89c.01-11.81,9.59-21.38,21.4-21.4h450.62c11.81,.01,21.38,9.59,21.4,21.4V760.63c-.01,11.81-9.59,21.38-21.4,21.4Z" fill="#fff"/>
      <circle cx="349.71" cy="280.51" r="29.4" fill="#e6e6e6"/>
      <path d="M304.9,360.86c4.15,2.36,8.5,4.37,13,5.99l.79,.28c9.05,3.18,18.58,4.8,28.17,4.78,1.93,0,3.79-.07,5.53-.2,4.23-.26,8.43-.84,12.57-1.73,2.27-.5,4.54-1.09,6.73-1.76,.53-.16,1.02-.31,1.56-.48,8.93-2.9,17.32-7.24,24.84-12.87-.6-1.14-1.26-2.25-1.98-3.33-7.85-12-21.23-19.22-35.56-19.2h-15.47c-16.67,0-31.8,9.73-38.72,24.89-.54,1.18-1.02,2.39-1.44,3.62Z" fill="#e6e6e6"/>
      <path d="M359.69,369.25c-.99,.07-1.94,.41-2.75,.97,4.15-.26,8.27-.83,12.33-1.71l-9.58,.75Z" fill="#0a2b3e"/>
      <path d="M351.49,200.73c-47.48,0-85.97,38.5-85.97,85.99,0,30.75,16.43,59.16,43.08,74.5,4.36,2.52,8.93,4.65,13.66,6.36l.8,.28c9.13,3.21,18.74,4.84,28.42,4.83,1.87,0,3.74-.06,5.59-.2,4.26-.26,8.5-.85,12.67-1.75,2.34-.51,4.63-1.11,6.79-1.78,.53-.15,1.02-.31,1.56-.48,45.15-14.71,69.84-63.24,55.13-108.39-11.53-35.39-44.52-59.35-81.74-59.36h0Zm49.89,150.39c-7.42,5.72-15.77,10.13-24.68,13.01-.48,.15-.98,.31-1.47,.46-2.06,.63-4.22,1.19-6.45,1.67-3.95,.86-7.96,1.42-11.99,1.67-1.75,.12-3.53,.19-5.29,.19-9.16,0-18.26-1.54-26.91-4.56l-.76-.26c-4.71-1.69-9.25-3.83-13.56-6.38-38.72-22.79-51.63-72.66-28.83-111.38,22.79-38.72,72.66-51.63,111.38-28.83,38.72,22.79,51.63,72.66,28.83,111.38-5.24,8.89-12.12,16.71-20.27,23.03h0Z" fill="#ccc"/>
      <path d="M680.81,782.03H230.19c-11.81-.01-21.38-9.59-21.4-21.4V148.89c.01-11.81,9.59-21.38,21.4-21.4h450.62c11.81,.01,21.38,9.59,21.4,21.4V760.63c-.01,11.81-9.59,21.38-21.4,21.4ZM230.19,130.01c-10.42,.01-18.87,8.46-18.88,18.88V760.63c.01,10.42,8.46,18.87,18.88,18.88h450.62c10.42-.01,18.87-8.46,18.88-18.88V148.89c-.01-10.42-8.46-18.87-18.88-18.88H230.19Z" fill="#ccc"/>
      <path d="M593.58,286.37h-127.51c-5.57,0-10.09-4.51-10.1-10.08s4.51-10.09,10.08-10.1h127.53c5.57,0,10.09,4.51,10.1,10.08,0,5.57-4.51,10.09-10.08,10.1h-.02Z" fill="#e6e6e6"/>
      <path d="M635.19,320.42h-169.12c-5.57,0-10.09-4.51-10.1-10.08s4.51-10.09,10.08-10.1h169.14c5.57,0,10.08,4.53,10.08,10.1,0,5.56-4.51,10.07-10.08,10.08Z" fill="#e6e6e6"/>
      <path d="M593.39,451H275.81c-5.57,0-10.09-4.51-10.1-10.08,0-5.57,4.51-10.09,10.08-10.1h317.6c5.57,0,10.09,4.51,10.1,10.08,0,5.57-4.51,10.09-10.08,10.1h-.02Z" fill="#e6e6e6"/>
      <path d="M635,485.04H275.81c-5.57,0-10.09-4.51-10.1-10.08,0-5.57,4.51-10.09,10.08-10.1h359.21c5.57,0,10.08,4.53,10.08,10.1,0,5.56-4.51,10.07-10.08,10.08Z" fill="#e6e6e6"/>
      <path d="M593.39,563.29H275.81c-5.57,0-10.09-4.51-10.1-10.08,0-5.57,4.51-10.09,10.08-10.1h317.6c5.57,0,10.09,4.51,10.1,10.08,0,5.57-4.51,10.09-10.08,10.1h-.02Z" fill="#e6e6e6"/>
      <path d="M635,597.34H275.81c-5.57,0-10.08-4.53-10.08-10.1,0-5.56,4.51-10.07,10.08-10.08h359.19c5.57,0,10.09,4.51,10.1,10.08,0,5.57-4.51,10.09-10.08,10.1h-.02Z" fill="#e6e6e6"/>
      <path d="M593.39,675.59H275.81c-5.57,0-10.08-4.53-10.08-10.1,0-5.56,4.51-10.07,10.08-10.08h317.58c5.57,0,10.09,4.51,10.1,10.08,0,5.57-4.51,10.09-10.08,10.1h-.02Z" fill="#e6e6e6"/>
      <path d="M635,709.63H275.81c-5.57,0-10.08-4.53-10.08-10.1,0-5.56,4.51-10.07,10.08-10.08h359.19c5.57,.01,10.08,4.54,10.07,10.11-.01,5.56-4.51,10.06-10.07,10.07Z" fill="#e6e6e6"/>
      <path d="M868.79,365.37c.85-7.85-3.3-15.4-10.39-18.88L511.11,176.76c-9.29-4.54-20.5-.7-25.04,8.59h0s-130.25,266.52-130.25,266.52c-4.53,9.29-.68,20.5,8.6,25.05l347.29,169.74c9.29,4.53,20.5,.68,25.05-8.6l130.25-266.5c.95-1.94,1.56-4.03,1.79-6.18Z" fill="#fff"/>
      <path d="M868.79,365.37c.85-7.85-3.3-15.4-10.39-18.88L511.11,176.76c-9.29-4.54-20.5-.7-25.04,8.59h0s-130.25,266.52-130.25,266.52c-4.53,9.29-.68,20.5,8.6,25.05l347.29,169.74c9.29,4.53,20.5,.68,25.05-8.6l130.25-266.5c.95-1.94,1.56-4.03,1.79-6.18Zm-134.03,271.71c-4.02,8.19-13.9,11.59-22.1,7.59l-347.29-169.74c-8.19-4.02-11.59-13.9-7.59-22.1L488.04,186.33c4.02-8.19,13.9-11.59,22.1-7.59l347.29,169.74c8.19,4.02,11.59,13.9,7.59,22.1l-130.25,266.5Z" fill="#0a2b3e"/>
      <path d="M830.91,377.49l-90.95,186.09c-1.26,2.59-4.38,3.66-6.97,2.4h0l-315.9-154.4c-.23-.11-.44-.24-.65-.38-2.14-1.46-2.89-4.27-1.75-6.59l90.95-186.09c1.26-2.59,4.38-3.66,6.97-2.4h0l315.9,154.4c2.59,1.26,3.66,4.38,2.4,6.97h0s0,0,0,0Z" fill="#e6e6e6"/>
      <circle cx="553.57" cy="322.29" r="45.75" fill="#0063e2"/>
      <path d="M620.56,511.95l-201.64-98.55c-.25-.12-.5-.26-.72-.43l176.1-118.58c3.38-2.32,8.01-1.46,10.33,1.92,.76,1.11,1.21,2.41,1.29,3.76l9.82,142.13,.47,6.8,4.34,62.94Z" fill="#0a2b3e"/>
      <polygon points="620.56 511.95 551.71 478.3 609.5 445.73 613.66 443.39 615.74 442.21 616.22 449.01 620.56 511.95" isolation="isolate" opacity=".2"/>
      <path d="M732.83,566.82l-174.4-85.24,57.79-32.57,4.16-2.35,75.31-42.45c4.94-2.78,12.01,.35,13.61,5.67,.11,.36,.19,.73,.25,1.1l23.29,155.83Z" fill="#0a2b3e"/>
      <polygon points="194.72 583.07 213.69 583.06 222.72 509.89 194.72 509.9 194.72 583.07" fill="#ffb8b8"/>
      <path d="M189.88,576.87h37.36s0,0,0,0c13.15,0,23.81,10.66,23.81,23.81h0v.77h-61.17s0-24.58,0-24.58Z" fill="#0a2b3e"/>
      <polygon points="47.27 570.99 66.93 574.83 91.11 500.85 62.1 495.18 47.27 570.99" fill="#ffb8b8"/>
      <path d="M43.52,563.59l38.71,7.57h0c13.62,2.67,22.51,15.87,19.84,29.49,0,0,0,0,0,0l-.16,.8-63.37-12.4,4.98-25.47Z" fill="#0a2b3e"/>
      <path d="M222.32,330.66c-2.43-8.24-11.08-12.96-19.32-10.53-.88,.26-1.73,.59-2.55,1l-39.54-38.65-5.46,28.21,38.39,32.38c4.36,7.46,13.94,9.97,21.4,5.61,6.24-3.65,9.17-11.1,7.08-18.02h0Z" fill="#ffb8b8"/>
      <circle cx="75.62" cy="93.72" r="38" fill="#ffb8b8"/>
      <path d="M67.64,132.3c2.02,.88,6.15-15.21,4.3-18.42-2.75-4.79-2.59-4.75-4.42-7.92-1.83-3.17-2.24-7.5,.13-10.29,2.37-2.79,7.85-2.42,8.93,1.08-.7-6.63,5.87-11.97,12.37-13.47s13.36-.57,19.89-1.9c7.59-1.55,15.48-7.91,12.45-16.25-.52-1.39-1.3-2.67-2.29-3.77-3.5-3.93-8.39-5.61-13.17-7.23-9.95-3.38-20.17-6.8-30.67-6.42-17.68,.92-33.13,12.23-39.37,28.79-.72,2.03-1.28,4.11-1.68,6.23-3.6,19.38,7.65,38.49,25.93,45.87l7.6,3.69Z" fill="#0a2b3e"/>
      <path d="M58.31,341.07c-1.98-1.2-3.06-3.46-2.75-5.75l-17.15-84.95-17.38-65.2h0c-3.93-14.71,2.85-30.19,16.33-37.28l11.49-10.87,25.07,10.8,11.91,12.11c17.28,8.41,30.2,23.73,35.58,42.18l19.11,65.38,44.13,65.65c1.52,2.25,1.28,5.25-.57,7.24-6.14,6.6-125.76,.68-125.76,.68Z" fill="#0063e2"/>
      <path d="M173.91,335.04l-65.07-45.09c-8.87-6.19-15.29-15.29-18.15-25.72l-18.29-66.78c-1.38-4.94-.69-10.23,1.89-14.66,5.1-8.89,16.44-11.97,25.33-6.87,3.64,2.09,6.47,5.35,8.02,9.25l27.12,66.72,57.79,54.85c1.32,1.61,1.7,3.79,.98,5.75l-11.01,19.68c-.78,2.32-2.96,3.89-5.41,3.9-1.15,0-2.28-.36-3.22-1.02Z" fill="#0063e2"/>
      <path d="M38.74,559.66c-1.08-1.55-1.34-3.52-.69-5.3l30.1-109.43,2.23-107.22,101.33-6.95,.49-.03,30.52,55.32c9.56,17.29,15.4,36.39,17.18,56.07l10.06,110.22c.32,3.12-1.92,5.91-5.03,6.29l-30.55,2.91c-3.06,.37-5.86-1.76-6.31-4.81l-12.41-112-44.64-75.42-14.98,79.41-31.04,109.66c-.83,2.24-2.96,3.74-5.35,3.75l-36.21,.02c-1.87,0-3.63-.91-4.68-2.46Z" fill="#0a2b3e"/>
      <path d="M814.62,919.56H51.06c-28.19-.03-51.03-22.87-51.06-51.06V449.17c.03-28.19,22.87-51.03,51.06-51.06h93.62c12.7-.01,24.95,4.72,34.34,13.28l101.52,72.49c6.62,6.05,15.26,9.4,24.23,9.39H819.36c28.2,0,51.06,22.86,51.06,51.06,0,.25,0,.5,0,.75l-4.74,324.17c-.52,27.86-23.19,50.2-51.06,50.32Z" fill="#fff"/>
      <path d="M807.83,894.8H55.58c-13.6-.02-24.62-11.03-24.63-24.63V443.98c.02-13.6,11.03-24.62,24.63-24.63,12.03,.01,21.77,9.76,21.79,21.79v399.63c.01,12.74,10.34,23.07,23.09,23.09H805.29c7.21-.08,13.54,4.76,15.34,11.74,2.02,6.61-.73,13.76-6.66,17.31-1.83,1.19-3.95,1.85-6.14,1.9Z" fill="#f2f2f2"/>
      <path d="M431.99,682.78l-2.75,2.75c-1.19,1.11-1.25,2.97-.14,4.16,.04,.05,.09,.09,.14,.14l24.11,24.14c1.11,1.19,2.97,1.25,4.16,.14h0s.09-.09,.14-.14l24.11-24.11c1.19-1.14,1.22-3.03,.07-4.22h0l-.07-.07-2.75-2.75c-1.14-1.19-3.03-1.22-4.22-.07h0l-.07,.07-14.26,15.03v-35.67c.01-1.64-1.31-2.97-2.94-2.98h-.02s-3.97,0-3.97,0c-1.65,0-2.98,1.34-2.98,2.98h0v35.62l-14.26-15.03c-1.15-1.18-3.04-1.2-4.22-.05h0l-.07,.07Z" fill="#0063e2"/>
      <path d="M455.46,638.19c27.03,0,48.94,21.91,48.94,48.94s-21.91,48.94-48.94,48.94-48.94-21.91-48.94-48.94h0c.02-27.02,21.92-48.91,48.94-48.94m0-6.44c-30.59,0-55.38,24.79-55.38,55.38,0,30.58,24.79,55.38,55.38,55.38s55.38-24.79,55.38-55.38h0c0-30.59-24.79-55.38-55.38-55.38Z" fill="#0a2b3e"/>
      <path d="M814.62,919.56H51.06c-28.19-.03-51.03-22.87-51.06-51.06V449.17c.03-28.19,22.87-51.03,51.06-51.06h93.62c12.7-.01,24.95,4.72,34.34,13.28l101.52,72.49c6.62,6.05,15.26,9.4,24.23,9.39H819.36c28.2,0,51.06,22.86,51.06,51.06,0,.25,0,.5,0,.75l-4.74,324.17c-.52,27.86-23.19,50.2-51.06,50.32ZM51.06,401.2c-26.48,.03-47.94,21.49-47.97,47.97v419.33c.03,26.48,21.49,47.94,47.97,47.97H814.62c26.17-.11,47.47-21.1,47.96-47.27l4.74-324.17c.39-26.49-20.77-48.28-47.26-48.66-.23,0-.47,0-.7,0H304.78c-9.71,0-19.07-3.61-26.25-10.14l-101.52-72.49c-8.83-8.07-20.36-12.54-32.33-12.53H51.06Z" fill="#0a2b3e"/>
      <polygon points="879.33 927.72 860.36 927.72 854.43 854.55 879.33 854.55 879.33 927.72" fill="#ffb8b8"/>
      <path d="M884.16,946.11h-61.17v-.78c0-13.15,10.66-23.81,23.81-23.81h37.36s0,24.58,0,24.58Z" fill="#0a2b3e"/>
      <polygon points="1091.31 927.72 1072.34 927.72 1063.32 854.55 1091.31 854.55 1091.31 927.72" fill="#ffb8b8"/>
      <path d="M1096.15,946.11h-61.17v-.78c0-13.15,10.66-23.81,23.81-23.81h37.36s0,24.58,0,24.58Z" fill="#0a2b3e"/>
      <path d="M1028.94,701.52c5.4-6.33,5.59-15.59,.45-22.13-.51-.61-1.06-1.17-1.66-1.69l14.29-52.75-23.81,7.9-9.92,48.88c-3.36,6.16-2.75,13.73,1.57,19.26,4.07,5.38,11.74,6.45,17.12,2.37,.72-.54,1.37-1.16,1.95-1.85Z" fill="#ffb8b8"/>
      <path d="M1028.02,669.07c-.3,0-.6-.02-.89-.07l-12.41-1.87c-1.95-.34-3.66-1.52-4.66-3.23-1.08-1.8-1.46-3.93-1.09-5.99l15.48-86.47-10.5-55.55c-2.02-10.69,3.2-21.49,12.15-25.12,5.4-2.21,11.57-1.42,16.24,2.08,5.01,3.79,8.17,9.54,8.7,15.8l7.43,70.83-.09,.31-23.92,83.94c-.71,3.02-3.34,5.2-6.44,5.34Z" fill="#0063e2"/>
      <circle cx="1024.36" cy="422.16" r="38" fill="#ffb8b8"/>
      <path d="M1004.9,598.82c-.95,0-1.89-.17-2.77-.52l-60.07-23.1c-3.35-1.28-5.37-4.69-4.89-8.24l2.41-18.09c-2.9-13.02,.7-26.63,9.67-36.5l1.46-1.61,17.77-32.41c5.04-9.19,16.57-12.55,25.75-7.51,.04,.02,.09,.05,.13,.07l31.38,17.54c4.13,2.3,7.25,6.07,8.74,10.56,4.22,12.71,3.91,26.49-.89,38.99l-21.49,55.87c-1.16,2.98-4.03,4.95-7.23,4.96Z" fill="#0063e2"/>
      <path d="M847.48,909.76l-.08-.02c-4.2-.81-6.94-4.86-6.14-9.06,.02-.11,.04-.21,.07-.31l46.03-201.21c7.54-31.9,17.95-63.05,31.1-93.07l19.58-44.65,73.07,33.36,10.43,19.08c8.14,21.25,12.32,43.81,12.34,66.57l74.25,217.6c1.38,4.04-.78,8.44-4.82,9.82-.4,.14-.81,.24-1.23,.31l-40.65-.46c-.38,.07-.77,.1-1.16,.1-3.15,0-5.99-1.92-7.15-4.85l-84.88-220.01c-.25-.6-.84-.98-1.49-.96-.63,.01-1.19,.42-1.4,1.02l-80.54,221.1c-1.28,3.55-4.94,5.65-8.65,4.97l-28.72,.67Z" fill="#0a2b3e"/>
      <path d="M903.05,662.31c8.1-2.88,12.33-11.78,9.45-19.87-.31-.86-.69-1.7-1.14-2.49l36.4-41.62-28.47-3.88-30.2,40.12c-7.21,4.77-9.18,14.47-4.42,21.68,3.99,6.03,11.59,8.54,18.39,6.07h0Z" fill="#ffb8b8"/>
      <path d="M920.2,632.99c-1.27,0-2.51-.31-3.63-.91l-12.81-6.83c-3.77-2.01-5.2-6.7-3.18-10.47,.09-.17,.19-.34,.29-.5l47.31-74.55,8.2-56.26c1.73-11.87,12.76-20.08,24.62-18.35,11.87,1.73,20.08,12.76,18.35,24.62-.1,.68-.23,1.35-.39,2.02l-16.94,69.34-55.8,69.02c-1.47,1.82-3.69,2.88-6.03,2.87Z" fill="#0063e2"/>
      <path d="M990.15,390.8c4.4-14.42,29.79-20.85,50.9-14.87,21.11,5.98,36.28,21.66,39.81,36.99,7.82,33.95-32.96,61.51-25.57,95.46,4.89,22.47,33.17,43.71,65.02,48.84-35.1,7.34-77.94,.89-110.5-16.65-20.26-10.91-37.26-27.39-37-44,.16-10.06,6.55-18.95,14.38-26.64,7.83-7.68,17.19-14.52,24.37-22.54,7.18-8.02,12.16-17.63,10.06-27.81-2.1-10.18-12.74-20.8-27.07-23.76l-4.41-5.03Z" fill="#0a2b3e"/>
    </g>
  </g>
</svg>