<?xml version="1.0" encoding="UTF-8"?>
<svg id="Capa_2" data-name="Capa 2" xmlns="http://www.w3.org/2000/svg" viewBox="0 0 1263.75 990.97">
  <g id="Ilustración">
    <g>
      <path d="M733.6,48.31c11.28,24-12.62,30.8-40,43.67-27.38,12.86-47.87,26.92-59.14,2.92-11.28-24-20.43-71.64,18.3-89.84,40.06-18.83,69.56,19.25,80.84,43.25Z" fill="#0a2b3e"/>
      <circle cx="677.74" cy="58.66" r="36.86" fill="#ffb8b8"/>
      <path d="M860.33,222.11c-1.28-1.67-2.55-3.3-3.84-4.89-1.67-2.07-3.34-4.08-5.03-6.02-19.1-22.04-39.42-35.92-61.79-37.41h-.03l-.33-.03-44.58,43.46-15.16,14.77,.33,.81,8.18,20.36h143.29c-6.46-10.72-13.48-21.08-21.04-31.05Z" fill="#0a2b3e"/>
      <path d="M637.66,73.49h0l13.19-6.2-1.84-19.03,8.82,15.75,6.31-2.96-1.07-11.1,5.15,9.19,46.85-22.02h0c-9.16-19.5-32.4-27.88-51.9-18.72l-6.79,3.19c-19.5,9.16-27.88,32.4-18.72,51.9Z" fill="#0a2b3e"/>
      <path d="M943.01,742.49H173.46c-13.67-.02-24.74-11.09-24.76-24.76V255.32c.01-10.01,8.13-18.13,18.14-18.14H949.32c10.19,.01,18.44,8.27,18.45,18.45v462.1c-.02,13.67-11.09,24.74-24.76,24.76Z" fill="#f2f2f2"/>
      <path d="M197.47,717.73H919c13.26,0,24.01-10.75,24.01-24.01V301.25c0-13.26-10.75-24.01-24.01-24.01H197.47c-13.26,0-24.01,10.75-24.01,24.01v392.47c0,13.26,10.75,24.01,24.01,24.01Z" fill="#fff"/>
      <path d="M967.43,253.9H148.35v-12.61c.02-13.71,11.14-24.82,24.85-24.83H942.58c13.71,.01,24.83,11.12,24.85,24.83v12.61Z" fill="#0063e2"/>
      <circle cx="193.51" cy="235.22" r="6.43" fill="#fff"/>
      <circle cx="217.91" cy="235.22" r="6.43" fill="#fff"/>
      <circle cx="242.3" cy="235.22" r="6.43" fill="#fff"/>
      <path d="M580.75,632.62h-64.53c-7.87,0-14.25-6.39-14.26-14.26v-64.53c0-7.87,6.39-14.25,14.26-14.26h64.53c7.87,0,14.25,6.39,14.26,14.26v64.53c0,7.87-6.39,14.25-14.26,14.26Zm-64.53-90.04c-6.21,0-11.25,5.04-11.25,11.25v64.53c0,6.21,5.04,11.25,11.25,11.25h64.53c6.21,0,11.25-5.04,11.25-11.25v-64.53c0-6.21-5.04-11.25-11.25-11.25h-64.53Z" fill="#ccc"/>
      <path d="M567.99,614.61h-39.02c-2.49,0-4.5-2.02-4.5-4.5v-48.02c0-2.49,2.02-4.5,4.5-4.5h28.27c1.03,0,2.02,.35,2.82,.99l10.74,8.63c1.07,.85,1.69,2.14,1.68,3.51v39.38c0,2.49-2.02,4.5-4.5,4.5Zm-39.02-54.02c-.83,0-1.5,.67-1.5,1.5v48.02c0,.83,.67,1.5,1.5,1.5h39.02c.83,0,1.5-.67,1.5-1.5v-39.38c0-.45-.21-.89-.56-1.17l-10.75-8.63c-.27-.21-.6-.33-.94-.33h-28.27Z" fill="#ccc"/>
      <path d="M560.49,578.59h-24.01c-.83,0-1.5-.67-1.5-1.5s.67-1.5,1.5-1.5h24.01c.83,0,1.5,.67,1.5,1.5s-.67,1.5-1.5,1.5Z" fill="#ccc"/>
      <path d="M560.49,587.6h-24.01c-.83,0-1.5-.67-1.5-1.5s.67-1.5,1.5-1.5h24.01c.83,0,1.5,.67,1.5,1.5s-.67,1.5-1.5,1.5Z" fill="#ccc"/>
      <path d="M560.49,596.6h-24.01c-.83,0-1.5-.67-1.5-1.5s.67-1.5,1.5-1.5h24.01c.83,0,1.5,.67,1.5,1.5s-.67,1.5-1.5,1.5Z" fill="#ccc"/>
      <path d="M733.81,632.62h-64.53c-7.87,0-14.25-6.39-14.26-14.26v-64.53c0-7.87,6.39-14.25,14.26-14.26h64.53c7.87,0,14.25,6.39,14.26,14.26v64.53c0,7.87-6.39,14.25-14.26,14.26Zm-64.53-90.04c-6.21,0-11.25,5.04-11.25,11.25v64.53c0,6.21,5.04,11.25,11.25,11.25h64.53c6.21,0,11.25-5.04,11.25-11.25v-64.53c0-6.21-5.04-11.25-11.25-11.25h-64.53Z" fill="#ccc"/>
      <path d="M722.55,602.6h-42.02c-2.49,0-4.5-2.02-4.5-4.5v-24.01c0-2.49,2.02-4.5,4.5-4.5h42.02c2.49,0,4.5,2.02,4.5,4.5v24.01c0,2.49-2.02,4.5-4.5,4.5Zm-42.02-30.01c-.83,0-1.5,.67-1.5,1.5v24.01c0,.83,.67,1.5,1.5,1.5h42.02c.83,0,1.5-.67,1.5-1.5v-24.01c0-.83-.67-1.5-1.5-1.5h-42.02Z" fill="#ccc"/>
      <path d="M701.55,590.06c-.84,0-1.67-.23-2.39-.68l-22.42-14.01c-.7-.44-.92-1.37-.47-2.07,.44-.7,1.36-.91,2.07-.48l22.42,14.01c.49,.3,1.1,.3,1.59,0l22.42-14.01c.7-.44,1.63-.22,2.07,.48,.44,.7,.22,1.63-.48,2.07l-22.42,14.01c-.72,.45-1.54,.68-2.39,.68Z" fill="#ccc"/>
      <path d="M427.69,632.62h-64.53c-7.87,0-14.25-6.39-14.26-14.26v-64.53c0-7.87,6.39-14.25,14.26-14.26h64.53c7.87,0,14.25,6.39,14.26,14.26v64.53c0,7.87-6.39,14.25-14.26,14.26Zm-64.53-90.04c-6.21,0-11.25,5.04-11.25,11.25v64.53c0,6.21,5.04,11.25,11.25,11.25h64.53c6.21,0,11.25-5.04,11.25-11.25v-64.53c0-6.21-5.04-11.25-11.25-11.25h-64.53Z" fill="#ccc"/>
      <path d="M416.43,602.6h-42.02c-2.49,0-4.5-2.02-4.5-4.5v-24.01c0-2.49,2.02-4.5,4.5-4.5h42.02c2.49,0,4.5,2.02,4.5,4.5v24.01c0,2.49-2.02,4.5-4.5,4.5Zm-42.02-30.01c-.83,0-1.5,.67-1.5,1.5v24.01c0,.83,.67,1.5,1.5,1.5h42.02c.83,0,1.5-.67,1.5-1.5v-24.01c0-.83-.67-1.5-1.5-1.5h-42.02Z" fill="#ccc"/>
      <path d="M409.78,602.6h-30.2c-1.66,0-3-1.34-3-3,0-.53,.14-1.05,.4-1.5l9.1-15.76c.83-1.44,2.66-1.93,4.1-1.1,.46,.26,.83,.64,1.1,1.1l5.87,10.18,3.4-5.9c.83-1.44,2.66-1.93,4.1-1.1,.46,.26,.83,.64,1.1,1.1l6.63,11.48c.83,1.44,.34,3.27-1.1,4.1-.46,.26-.97,.4-1.5,.4h0Zm0-3h0l-6.63-11.48-4.7,8.15c-.27,.46-.76,.75-1.3,.75h0c-.54,0-1.03-.29-1.3-.75l-7.17-12.43-9.1,15.76h30.2Z" fill="#ccc"/>
      <circle cx="411.93" cy="578.59" r="3" fill="#ccc"/>
      <path d="M974.39,463.64h-456.18c-13.67-.02-24.74-11.09-24.76-24.76v-97.54c.02-13.67,11.09-24.74,24.76-24.76h456.18c13.67,.02,24.74,11.09,24.76,24.76v97.54c-.02,13.67-11.09,24.74-24.76,24.76Z" fill="#fff"/>
      <path d="M974.39,464.39h-456.18c-14.08-.02-25.49-11.43-25.51-25.51v-97.54c.02-14.08,11.43-25.49,25.51-25.51h456.18c14.08,.02,25.49,11.43,25.51,25.51v97.54c-.02,14.08-11.43,25.49-25.51,25.51Zm-456.18-145.56c-12.43,.01-22.49,10.08-22.51,22.51v97.54c.01,12.43,10.08,22.49,22.51,22.51h456.18c12.43-.01,22.49-10.08,22.51-22.51v-97.54c-.01-12.43-10.08-22.49-22.51-22.51h-456.18Z" fill="#0a2b3e"/>
      <path d="M918.86,439.63h-345.13c-13.67-.02-24.74-11.09-24.76-24.76v-51.02c.02-13.67,11.09-24.74,24.76-24.76h345.13c13.67,.02,24.74,11.09,24.76,24.76v51.02c-.02,13.67-11.09,24.74-24.76,24.76Z" fill="#f2f2f2"/>
      <circle cx="648" cy="382.52" r="29.61" fill="#0063e2"/>
      <path d="M897.42,436.64l-41.8-35.05-41.07-34.45c-2.24-1.88-5.5-1.87-7.73,.02l-40.94,34.61-10,8.45-15.08-12.65-45.82-38.43c-2.24-1.88-5.5-1.87-7.73,.01l-45.67,38.61-46.39,39.22c-.63,.53-.71,1.48-.18,2.11,.29,.34,.71,.53,1.15,.53l95.12-.18,30.11-.06-.29,.25,89.75-.17,85.63-.16c.83,0,1.5-.67,1.5-1.5,0-.44-.2-.86-.54-1.15Z" fill="#0a2b3e"/>
      <polygon points="1129.54 972.6 1111.14 972.6 1102.39 901.64 1129.54 901.64 1129.54 972.6" fill="#ffb8b8"/>
      <path d="M1134.23,990.44h-59.32v-.75c0-12.75,10.34-23.09,23.09-23.09h36.23s0,23.84,0,23.84Z" fill="#0a2b3e"/>
      <polygon points="1204.56 972.6 1186.17 972.6 1177.42 901.64 1204.57 901.64 1204.56 972.6" fill="#ffb8b8"/>
      <path d="M1209.26,990.44h-59.32v-.75c0-12.75,10.34-23.09,23.09-23.09h36.23s0,23.84,0,23.84Z" fill="#0a2b3e"/>
      <path d="M1199.05,941.84l-17.04-5.18c-2.6-.79-4.47-3.05-4.75-5.75l-15.89-150.55c-.03-.38-.34-.67-.72-.67-.38-.04-.72,.24-.77,.61l-26.61,145.86c-.67,3.67-4.19,6.1-7.86,5.43-.05,0-.1-.02-.15-.03l-21.78-4.49c-3.3-.69-5.59-3.7-5.37-7.07l16.18-239.06,109.75-11.84-16.31,266.69c-.22,3.56-3.16,6.33-6.73,6.34-.67,0-1.34-.1-1.98-.29Z" fill="#0a2b3e"/>
      <circle cx="1198.94" cy="435.9" r="36.86" fill="#ffb8b8"/>
      <path d="M1114.14,682.35l23.8-149.84c4.92-30.99,34.03-52.11,65.02-47.19,2.37,.38,4.72,.9,7.02,1.58h0c28.05,8.11,45.34,36.22,39.92,64.92l-24.9,133.81-110.85-3.28Z" fill="#0063e2"/>
      <path d="M1209.12,709.16c6.95-4.59,8.87-13.95,4.28-20.91-.49-.74-1.04-1.44-1.66-2.08l24.6-47.65-27.71,2.96-19.12,44.79c-5.68,6.16-5.28,15.76,.88,21.44,5.16,4.75,12.9,5.35,18.72,1.45h0Z" fill="#ffb8b8"/>
      <path d="M1214.39,677.76c-1.36-.19-2.63-.79-3.64-1.73l-9.41-8.7c-2.08-1.93-2.74-4.96-1.64-7.58l18.81-44.59-2.67-88.11c1.61-11.91,12.56-20.25,24.47-18.65,11.91,1.61,20.25,12.56,18.65,24.47,0,.02,0,.04,0,.06l4.56,55.39c1.39,16.81-3.38,33.55-13.41,47.11l-29.34,39.66c-1.14,1.54-2.88,2.53-4.79,2.71-.52,.05-1.05,.04-1.58-.04Z" fill="#0063e2"/>
      <path d="M986.7,415.82c1.52,8.19,9.39,13.61,17.58,12.09,.87-.16,1.73-.4,2.56-.71l34.28,41.23,8.08-26.67-33.79-35.07c-3.46-7.63-12.45-11.01-20.08-7.55-6.38,2.9-9.95,9.79-8.63,16.67Z" fill="#ffb8b8"/>
      <path d="M1013.56,432.91c.71-1.18,1.76-2.11,3.01-2.68l11.68-5.28c2.59-1.16,5.64-.59,7.62,1.45l33.73,34.71,82.18,31.9c10.34,6.12,13.75,19.47,7.63,29.8-6.12,10.34-19.47,13.75-29.8,7.63-.02,0-.03-.02-.05-.03l-52.79-17.39c-16.02-5.28-29.58-16.19-38.16-30.72l-25.09-42.48c-.97-1.65-1.2-3.64-.62-5.47,.16-.5,.38-.99,.65-1.44Z" fill="#0063e2"/>
      <polygon points="1228.84 563.7 1227.34 611.72 1199.69 659.75 1222.78 606.22 1228.84 563.7" isolation="isolate" opacity=".1"/>
      <path d="M1194.72,442.83c-4.79,.62-9.3-2.39-10.55-7.06-1.19-5.29-5.2-9.49-10.43-10.91-6.76-1.54-15.02,1.64-19.98-3.48-2.15-2.37-3.03-5.63-2.36-8.77,.91-4.98,4.47-8.74,8.35-11.75,8.15-6.3,18.02-9.99,28.31-10.58,5.33-.15,10.65,.11,15.94,.79,5.53,.35,11,1.35,16.3,2.98,12.27,4.63,21.32,15.2,24.01,28.03,2.45,12.82-.87,26.07-9.09,36.21-4.86,6.05-11.12,10.82-18.25,13.89-1.7,.8-3.64,.9-5.41,.27-4.44-1.76-3.71-7.26-1.69-10.93,2.17-3.92,5.5-7.72,3.76-12.5-.87-2.21-2.55-4.02-4.69-5.05-4.41-2.25-9.35-1.72-14.09-1.17h-.12Z" fill="#0a2b3e"/>
      <path d="M882.29,197.95c-2.42-3.94-6.36-6.7-10.88-7.65-.82-.17-1.65-.28-2.49-.32l-114.33-102.22c-2.25-2.31-5.24-3.74-8.45-4.04-.63-.07-1.27-.09-1.91-.06-7.5,.34-13.3,6.69-12.96,14.19,.15,3.41,1.59,6.64,4.01,9.04l43.77,38.16,71.88,62.65c.06,1.18,.24,2.35,.53,3.5,1.76,6.79,7.54,11.79,14.51,12.56,3.11,.36,6.25-.16,9.08-1.5,2.24-1.05,4.23-2.57,5.82-4.46,.16-.2,.32-.38,.47-.59,4.3-5.6,4.67-13.27,.95-19.27h0Z" fill="#ffb8b8"/>
      <path d="M686.73,296.46l-1.07-43.31-.9-35.94-.62-25.15-1.22-49.02c-.68-7.47-7.29-12.96-14.76-12.28-3.39,.31-6.53,1.88-8.82,4.4-.42,.45-.79,.93-1.13,1.44-1.85,2.65-2.68,5.87-2.34,9.08l2.67,71.53,1.34,35.94,1.71,45.84c-.49,.67-.94,1.38-1.33,2.12-2.16,4.09-2.54,8.88-1.07,13.27,2.98,8.89,12.6,13.68,21.49,10.7,.63-.21,1.25-.46,1.86-.75,8.47-4,12.09-14.11,8.08-22.58-.95-2-2.27-3.8-3.91-5.29h0Z" fill="#ffb8b8"/>
      <path d="M789.67,173.79l-10.61-28.74-17.17-46.55c-2.51-6.86-8-12.21-14.93-14.53-.27-.09-.55-.18-.83-.26-6.7-2.03-13.96-1.04-19.87,2.73l-57.82,36.67c-11.01,6.97-14.51,21.41-7.91,32.64,7.23,12.5,15.11,24.62,23.6,36.3,6.74,9.17,19.28,10.14,21.46,25.15h42.63l43.16-38.75-1.73-4.68Z" fill="#0063e2"/>
      <circle cx="127.65" cy="490.21" r="34.77" fill="#a0616a"/>
      <path d="M213.02,466.28c.34,.27,.67,.56,1,.87,6.26,5.9,6.56,15.76,.66,22.02-.4,.43-.83,.84-1.28,1.22-.39,.33-.8,.64-1.22,.92l2.35,79.45c.14,5.34-3.24,10.14-8.32,11.81l-.14,.03-64.51,6.87c-7.33,.78-13.91-4.53-14.69-11.87-.78-7.33,4.53-13.91,11.87-14.69,.08,0,.16-.02,.24-.02l45.98-4.05,7.95-68.8c-.52-.46-1.01-.96-1.46-1.49-5.55-6.57-4.73-16.4,1.84-21.95,5.66-4.79,13.92-4.92,19.73-.31h0Z" fill="#a0616a"/>
      <polygon points="184.92 974.14 202.28 974.14 210.53 907.2 184.92 907.2 184.92 974.14" fill="#a0616a"/>
      <path d="M180.49,968.47h34.18s0,0,0,0c12.03,0,21.78,9.75,21.78,21.78h0v.71h-55.96s0-22.49,0-22.49Z" fill="#0a2b3e"/>
      <polygon points="12.41 950.14 27.32 959.02 68.67 905.73 46.66 892.62 12.41 950.14" fill="#a0616a"/>
      <path d="M11.51,943.01l29.37,17.49h0c10.34,6.16,13.73,19.52,7.57,29.86,0,0,0,0,0,0l-.36,.61L0,962.34l11.51-19.32Z" fill="#0a2b3e"/>
      <path d="M206.37,950.5h-19.44c-3.26,0-6-2.46-6.33-5.7l-19.59-184.18c-.12-1.17-1.17-2.01-2.34-1.89-.75,.08-1.4,.55-1.71,1.24l-35.35,78.27-62.58,102.04c-1.67,2.7-5.08,3.77-8,2.5l-25-11c-3.22-1.42-4.68-5.18-3.26-8.4,.11-.24,.23-.47,.36-.7l57.53-96.33,17.64-81.16c-5.55-35.2,18.24-87.52,18.48-88.05l.12-.26,65.53-25.61,.33,.4c25.84,84.8,41.59,176.07,29.96,312.97-.3,3.29-3.05,5.82-6.35,5.84Z" fill="#0a2b3e"/>
      <path d="M114.27,665.47l-.31-.64c-.15-.31-14.72-31.04-25.95-63.88-4.36-12.84-3.15-26.92,3.36-38.83,6.59-12.02,17.92-20.74,31.23-24.02h0c23.63-5.66,47.84,6.83,56.91,29.37,8.91,22.28,6.07,46.06,3.4,64.76l-.05,.37-.34,.16-68.25,32.7Z" fill="#0063e2"/>
      <path d="M169.81,470.57h-55.21v-24.07c12.12-4.81,23.98-8.91,31.15,0,13.29,0,24.07,10.78,24.07,24.07h0Z" fill="#0a2b3e"/>
      <path d="M111.54,442.26c-33.01,0-42.25,41.37-42.25,64.71,0,13.02,5.89,17.67,15.14,19.25l3.27-17.42,7.65,18.17c2.6,.01,5.33-.04,8.16-.09l2.59-5.34,5.79,5.25c23.17,.03,41.9,3.41,41.9-19.81,0-23.34-8.1-64.71-42.24-64.71Z" fill="#0a2b3e"/>
      <path d="M270.88,498.9h-64.53c-7.87,0-14.25-6.39-14.26-14.26v-64.53c0-7.87,6.39-14.25,14.26-14.26h64.53c7.87,0,14.25,6.39,14.26,14.26v64.53c0,7.87-6.39,14.25-14.26,14.26Z" fill="#fff"/>
      <path d="M270.88,498.9h-64.53c-7.87,0-14.25-6.39-14.26-14.26v-64.53c0-7.87,6.39-14.25,14.26-14.26h64.53c7.87,0,14.25,6.39,14.26,14.26v64.53c0,7.87-6.39,14.25-14.26,14.26Zm-64.53-90.04c-6.21,0-11.25,5.04-11.25,11.25v64.53c0,6.21,5.04,11.25,11.25,11.25h64.53c6.21,0,11.25-5.04,11.25-11.25v-64.53c0-6.21-5.04-11.25-11.25-11.25h-64.53Z" fill="#0a2b3e"/>
      <path d="M259.62,472.64h-42.02c-2.49,0-4.5-2.02-4.5-4.5v-31.51c0-2.49,2.02-4.5,4.5-4.5h11.83c1.56,0,3.02,.81,3.83,2.14l3.3,5.36h23.06c2.49,0,4.5,2.02,4.5,4.5v24.01c0,2.49-2.02,4.5-4.5,4.5Z" fill="#0063e2"/>
      <path d="M258.26,488.56c.21,.38,.4,.78,.58,1.19,3.48,7.87-.07,17.07-7.94,20.55-.54,.24-1.09,.45-1.65,.62-.49,.15-.98,.28-1.48,.37l-28.66,74.14c-1.95,4.98-6.92,8.09-12.25,7.65l-.14-.03-62.12-18.7c-7.06-2.13-11.06-9.57-8.94-16.64,2.13-7.06,9.57-11.06,16.64-8.94,.08,.02,.15,.05,.23,.07l43.95,14.11,34.03-60.33c-.3-.63-.56-1.27-.77-1.93-2.57-8.21,2.01-16.95,10.22-19.51,7.08-2.21,14.73,.87,18.3,7.37h0Z" fill="#a0616a"/>
    </g>
  </g>
</svg>